<?xml version="1.0" encoding="UTF-8" standalone="no" ?>
<!DOCTYPE svg PUBLIC "-//W3C//DTD SVG 1.1//EN" "http://www.w3.org/Graphics/SVG/1.1/DTD/svg11.dtd">
<svg xmlns="http://www.w3.org/2000/svg" xmlns:xlink="http://www.w3.org/1999/xlink" version="1.1" width="500" height="500" viewBox="0 0 500 500" xml:space="preserve">
<desc>Created with Fabric.js 4.6.0</desc>
<defs>
</defs>
<g transform="matrix(1.44 0 0 1.44 10.55 113.28)" id="ZCM7jHmTmjrui74BQGnR5"  >
<path style="stroke: rgb(0,0,0); stroke-width: 1; stroke-dasharray: none; stroke-linecap: butt; stroke-dashoffset: 0; stroke-linejoin: miter; stroke-miterlimit: 4; fill: rgb(255,255,255); fill-opacity: 0; fill-rule: nonzero; opacity: 1;" vector-effect="non-scaling-stroke"  transform=" translate(0, 0)" d="M 0 0" stroke-linecap="round" />
</g>
<g transform="matrix(1.44 0 0 1.38 89.58 246.38)" id="8XCSv71lpbctoor3lmrHk"  >
<path style="stroke: rgb(0,0,0); stroke-width: 1; stroke-dasharray: none; stroke-linecap: butt; stroke-dashoffset: 0; stroke-linejoin: miter; stroke-miterlimit: 4; fill: rgb(158,98,80); fill-rule: nonzero; opacity: 1;" vector-effect="non-scaling-stroke"  transform=" translate(0, 0)" d="M -59.04255 -82.18085 L 59.04256 -82.18085 L 36.17022 -13.03191000000001 L 31.9149 -45.47872000000001 L 20.21277 22.60638999999999 L 11.702129999999999 -13.03191000000001 L 1.595749999999999 50.79787999999999 L -4.787230000000001 22.60638999999999 L -15.957440000000002 82.18086 L -23.40425 22.606389999999998 L -30.31914 54.52128 L -36.1702 -2.3936100000000025 L -41.48935 22.606389999999998 L -45.74467 -30.053180000000005 L -55.28722 -13.031900000000004 z" stroke-linecap="round" />
</g>
<g transform="matrix(1.44 0 0 1.44 84.98 191.88)" id="35piDuj7SUQOev9sELchv"  >
<path style="stroke: rgb(0,0,0); stroke-width: 1; stroke-dasharray: none; stroke-linecap: butt; stroke-dashoffset: 0; stroke-linejoin: miter; stroke-miterlimit: 4; fill: rgb(7,180,114); fill-rule: nonzero; opacity: 1;" vector-effect="non-scaling-stroke"  transform=" translate(0, 0)" d="M -30.31915 -40.6915 L -30.31915 -17.819139999999997 L -22.87234 -30.053179999999998 L -22.87234 10.372350000000004 L -15.957450000000001 -1.329779999999996 L -15.957450000000001 40.691500000000005 L -7.978730000000001 10.372350000000004 L -2.659580000000002 22.074480000000005 L 1.063819999999998 -8.776579999999996 L 7.446799999999998 5.0532100000000035 L 14.361689999999998 -20.478699999999996 L 23.404239999999998 -8.776569999999996 L 30.319129999999998 -40.69148 z" stroke-linecap="round" />
</g>
<g transform="matrix(0.43 0 0 0.43 262.35 246.38)" id="YJ9CWXex1rDwjnK3fRr12"  >
<path style="stroke: rgb(0,0,0); stroke-width: 1; stroke-dasharray: none; stroke-linecap: butt; stroke-dashoffset: 0; stroke-linejoin: miter; stroke-miterlimit: 4; fill: rgb(255,0,15); fill-rule: nonzero; opacity: 1;" vector-effect="non-scaling-stroke"  transform=" translate(0, 0)" d="M -80.06114 -236.48609 L -56.55883999999999 -246.16351 L -52.84299999999999 -236.48609 L -45.49892999999999 -248.46766 L -33.978189999999984 -236.48609 L -29.830719999999985 -246.16351 L -23.379109999999987 -241.53072 L -15.545009999999987 -248.46765 L -11.858369999999987 -259.98839 L 5.192320000000013 -273.35245 L 16.25223000000001 -258.14507999999995 L 33.763750000000016 -254.32857999999996 L 60.031030000000015 -258.14507999999995 L 57.266050000000014 -252.15429999999995 C 57.266050000000014 -252.15429999999995 46.20614000000001 -245.70268999999996 54.961900000000014 -236.48609999999994 L 77.08172000000002 -231.41697999999994 L 91.36743000000001 -231.41697999999994 L 101.04485000000001 -231.41697999999994 L 83.07250000000002 -213.44462999999993 L 60.031030000000015 -200.33923999999993 L 54.96191000000002 -171.50914999999992 L 31.459610000000016 -162.55732999999992 L 20.399700000000017 -145.24186999999992 L 11.183110000000017 -108.42222999999993 L 31.459610000000016 -83.58390999999993 L 31.459610000000016 -66.48673999999994 L 43.90201000000002 -39.75862999999994 L 63.256850000000014 -10.265539999999941 L 70.16929000000002 31.669940000000057 L 83.07252000000003 91.99188000000005 C 83.07252000000003 91.99188000000005 63.25685000000003 141.30064000000004 63.25685000000003 145.44810000000007 C 63.25685000000003 149.59557000000007 60.031040000000026 196.09262000000007 60.031040000000026 196.09262000000007 L 1.966520000000024 220.51658000000006 L -26.604909999999975 235.26312000000007 L -52.84298999999997 273.3524100000001 L -52.84298999999997 196.0926100000001 L -72.58954999999997 196.0926100000001 L -56.55882999999997 170.9133800000001 L -33.97817999999997 159.5312700000001 L -11.858359999999973 159.5312700000001 L -18.931009999999972 139.2060700000001 L 20.39970000000003 100.1816800000001 L 24.15842000000003 25.384930000000097 L 31.459610000000033 1.8076900000000968 L 24.158420000000035 -39.7586499999999 L 5.192330000000034 -63.232959999999906 L -45.49890999999997 -78.6801099999999 L -45.49890999999997 -95.7532799999999 L -45.49890999999997 -124.2085599999999 L -18.930999999999965 -112.82644999999991 L -3.483849999999965 -154.28985999999992 L -26.604899999999965 -171.50914999999992 C -26.604899999999965 -171.50914999999992 -42.24687999999996 -187.6231899999999 -45.49890999999997 -185.1841599999999 C -48.750939999999964 -182.7451399999999 -72.58953999999997 -168.1109899999999 -72.58953999999997 -168.1109899999999 L -84.78465999999997 -190.0622099999999 L -72.58953999999997 -213.4446299999999 L -92.10173999999998 -220.9565199999999 L -101.04482999999998 -241.5307399999999 z" stroke-linecap="round" />
</g>
<g transform="matrix(0.08 0 0 0.08 218.27 338.63)" id="W2R8_wWccmPLk3k3YbF2K"  >
<path style="stroke: rgb(0,0,0); stroke-width: 1; stroke-dasharray: none; stroke-linecap: butt; stroke-dashoffset: 0; stroke-linejoin: miter; stroke-miterlimit: 4; fill: rgb(255,0,15); fill-rule: nonzero; opacity: 1;" vector-effect="non-scaling-stroke"  transform=" translate(0, 0)" d="M -40.4321 -85.42215 L -71.2963 -53.32338 L -36.111110000000004 -27.39745 C -36.111110000000004 -27.39745 3.3950599999999937 34.94823 -2.777780000000007 48.528479999999995 C -8.950620000000008 62.108729999999994 -16.975310000000007 113.34329 -16.975310000000007 113.34329 L 62.65432 -11.348070000000007 L 71.2963 -81.71844 C 71.2963 -81.71844 23.765440000000005 -110.73079 20.061730000000004 -113.19992 C 16.358030000000003 -115.66906 -40.4321 -85.42214000000001 -40.4321 -85.42214000000001 z" stroke-linecap="round" />
</g>
<g transform="matrix(0.11 0 0 0.11 322.69 307.29)" id="trf1xOYEL5oNC0XKIWbL3"  >
<path style="stroke: rgb(0,0,0); stroke-width: 1; stroke-dasharray: none; stroke-linecap: butt; stroke-dashoffset: 0; stroke-linejoin: miter; stroke-miterlimit: 4; fill: rgb(255,0,15); fill-rule: nonzero; opacity: 1;" vector-effect="non-scaling-stroke"  transform=" translate(0, 0)" d="M -17.48971 -8.02469 L -17.48971 9.259260000000001 L 17.48971 22.42798 L 12.962959999999999 -8.02469 L 2.6748899999999995 -22.427979999999998 z" stroke-linecap="round" />
</g>
<g transform="matrix(0.11 0 0 0.11 326.12 301.76)" id="RsQb_Fxo63wGfd3s_XoAT"  >
<path style="stroke: rgb(0,0,0); stroke-width: 1; stroke-dasharray: none; stroke-linecap: butt; stroke-dashoffset: 0; stroke-linejoin: miter; stroke-miterlimit: 4; fill: rgb(247,47,58); fill-rule: nonzero; opacity: 1;" vector-effect="non-scaling-stroke"  transform=" translate(0, 0)" d="M -17.48971 -8.02469 L -17.48971 9.259260000000001 L 17.48971 22.42798 L 12.962959999999999 -8.02469 L 2.6748899999999995 -22.427979999999998 z" stroke-linecap="round" />
</g>
<g transform="matrix(0.11 0 0 0.11 330.52 307.68)" id="rEmm3Acq3UnpySolAtqLD"  >
<path style="stroke: rgb(0,0,0); stroke-width: 1; stroke-dasharray: none; stroke-linecap: butt; stroke-dashoffset: 0; stroke-linejoin: miter; stroke-miterlimit: 4; fill: rgb(247,47,58); fill-rule: nonzero; opacity: 1;" vector-effect="non-scaling-stroke"  transform=" translate(0, 0)" d="M -17.48971 -8.02469 L -17.48971 9.259260000000001 L 17.48971 22.42798 L 12.962959999999999 -8.02469 L 2.6748899999999995 -22.427979999999998 z" stroke-linecap="round" />
</g>
<g transform="matrix(0.11 0 0 0.11 314.33 313.89)" id="xcfnSRHwTKnE-bcXLn4vo"  >
<path style="stroke: rgb(0,0,0); stroke-width: 1; stroke-dasharray: none; stroke-linecap: butt; stroke-dashoffset: 0; stroke-linejoin: miter; stroke-miterlimit: 4; fill: rgb(247,47,58); fill-rule: nonzero; opacity: 1;" vector-effect="non-scaling-stroke"  transform=" translate(0, 0)" d="M -17.48971 -8.02469 L -17.48971 9.259260000000001 L 17.48971 22.42798 L 12.962959999999999 -8.02469 L 2.6748899999999995 -22.427979999999998 z" stroke-linecap="round" />
</g>
<g transform="matrix(0.11 0 0 0.11 317.59 308.22)" id="UYkEqRUtCRYvZZzf48rRf"  >
<path style="stroke: rgb(0,0,0); stroke-width: 1; stroke-dasharray: none; stroke-linecap: butt; stroke-dashoffset: 0; stroke-linejoin: miter; stroke-miterlimit: 4; fill: rgb(247,47,58); fill-rule: nonzero; opacity: 1;" vector-effect="non-scaling-stroke"  transform=" translate(0, 0)" d="M -17.48971 -8.02469 L -17.48971 9.259260000000001 L 17.48971 22.42798 L 12.962959999999999 -8.02469 L 2.6748899999999995 -22.427979999999998 z" stroke-linecap="round" />
</g>
<g transform="matrix(0.11 0 0 0.11 322.16 314.27)" id="SyxSs3LRCk4IukyD_SyDw"  >
<path style="stroke: rgb(0,0,0); stroke-width: 1; stroke-dasharray: none; stroke-linecap: butt; stroke-dashoffset: 0; stroke-linejoin: miter; stroke-miterlimit: 4; fill: rgb(247,47,58); fill-rule: nonzero; opacity: 1;" vector-effect="non-scaling-stroke"  transform=" translate(0, 0)" d="M -17.48971 -8.02469 L -17.48971 9.259260000000001 L 17.48971 22.42798 L 12.962959999999999 -8.02469 L 2.6748899999999995 -22.427979999999998 z" stroke-linecap="round" />
</g>
<g transform="matrix(0.11 0 0 0.11 326.28 319.13)" id="lCenmD8fY-XbrcTHCH4JX"  >
<path style="stroke: rgb(0,0,0); stroke-width: 1; stroke-dasharray: none; stroke-linecap: butt; stroke-dashoffset: 0; stroke-linejoin: miter; stroke-miterlimit: 4; fill: rgb(247,47,58); fill-rule: nonzero; opacity: 1;" vector-effect="non-scaling-stroke"  transform=" translate(0, 0)" d="M -17.48971 -8.02469 L -17.48971 9.259260000000001 L 17.48971 22.42798 L 12.962959999999999 -8.02469 L 2.6748899999999995 -22.427979999999998 z" stroke-linecap="round" />
</g>
<g transform="matrix(0.11 0 0 0.11 329.54 313.46)" id="4_neKWSm-2oSXlTr_YSLH"  >
<path style="stroke: rgb(0,0,0); stroke-width: 1; stroke-dasharray: none; stroke-linecap: butt; stroke-dashoffset: 0; stroke-linejoin: miter; stroke-miterlimit: 4; fill: rgb(247,47,58); fill-rule: nonzero; opacity: 1;" vector-effect="non-scaling-stroke"  transform=" translate(0, 0)" d="M -17.48971 -8.02469 L -17.48971 9.259260000000001 L 17.48971 22.42798 L 12.962959999999999 -8.02469 L 2.6748899999999995 -22.427979999999998 z" stroke-linecap="round" />
</g>
<g transform="matrix(0.11 0 0 0.11 335.74 319.52)" id="zYWGQ7KlJ8pm7ufDqxHM-"  >
<path style="stroke: rgb(0,0,0); stroke-width: 1; stroke-dasharray: none; stroke-linecap: butt; stroke-dashoffset: 0; stroke-linejoin: miter; stroke-miterlimit: 4; fill: rgb(247,47,58); fill-rule: nonzero; opacity: 1;" vector-effect="non-scaling-stroke"  transform=" translate(0, 0)" d="M -17.48971 -8.02469 L -17.48971 9.259260000000001 L 17.48971 22.42798 L 12.962959999999999 -8.02469 L 2.6748899999999995 -22.427979999999998 z" stroke-linecap="round" />
</g>
<g transform="matrix(0.12 0 0 0.12 322.68 240.48)" id="ucEfyPGf9uAbNKD4OgFsO"  >
<path style="stroke: rgb(0,0,0); stroke-width: 1; stroke-dasharray: none; stroke-linecap: butt; stroke-dashoffset: 0; stroke-linejoin: miter; stroke-miterlimit: 4; fill: rgb(255,0,15); fill-rule: nonzero; opacity: 1;" vector-effect="non-scaling-stroke"  transform=" translate(0, 0)" d="M -17.48971 -8.02469 L -17.48971 9.259260000000001 L 17.48971 22.42798 L 12.962959999999999 -8.02469 L 2.6748899999999995 -22.427979999999998 z" stroke-linecap="round" />
</g>
<g transform="matrix(0.12 0 0 0.12 326.12 234.95)" id="QqTHsO7NU1eLiiYY5o8vU"  >
<path style="stroke: rgb(0,0,0); stroke-width: 1; stroke-dasharray: none; stroke-linecap: butt; stroke-dashoffset: 0; stroke-linejoin: miter; stroke-miterlimit: 4; fill: rgb(247,47,58); fill-rule: nonzero; opacity: 1;" vector-effect="non-scaling-stroke"  transform=" translate(0, 0)" d="M -17.48971 -8.02469 L -17.48971 9.259260000000001 L 17.48971 22.42798 L 12.962959999999999 -8.02469 L 2.6748899999999995 -22.427979999999998 z" stroke-linecap="round" />
</g>
<g transform="matrix(0.12 0 0 0.12 330.53 240.86)" id="Z097QxyGzGMEIwjnqvPrf"  >
<path style="stroke: rgb(0,0,0); stroke-width: 1; stroke-dasharray: none; stroke-linecap: butt; stroke-dashoffset: 0; stroke-linejoin: miter; stroke-miterlimit: 4; fill: rgb(247,47,58); fill-rule: nonzero; opacity: 1;" vector-effect="non-scaling-stroke"  transform=" translate(0, 0)" d="M -17.48971 -8.02469 L -17.48971 9.259260000000001 L 17.48971 22.42798 L 12.962959999999999 -8.02469 L 2.6748899999999995 -22.427979999999998 z" stroke-linecap="round" />
</g>
<g transform="matrix(0.12 0 0 0.12 314.33 247.07)" id="d1KhlVv1CgUPIvVMKX-kG"  >
<path style="stroke: rgb(0,0,0); stroke-width: 1; stroke-dasharray: none; stroke-linecap: butt; stroke-dashoffset: 0; stroke-linejoin: miter; stroke-miterlimit: 4; fill: rgb(247,47,58); fill-rule: nonzero; opacity: 1;" vector-effect="non-scaling-stroke"  transform=" translate(0, 0)" d="M -17.48971 -8.02469 L -17.48971 9.259260000000001 L 17.48971 22.42798 L 12.962959999999999 -8.02469 L 2.6748899999999995 -22.427979999999998 z" stroke-linecap="round" />
</g>
<g transform="matrix(0.12 0 0 0.12 317.59 241.4)" id="ukFfcdLlSUG7jLlGdSHtC"  >
<path style="stroke: rgb(0,0,0); stroke-width: 1; stroke-dasharray: none; stroke-linecap: butt; stroke-dashoffset: 0; stroke-linejoin: miter; stroke-miterlimit: 4; fill: rgb(247,47,58); fill-rule: nonzero; opacity: 1;" vector-effect="non-scaling-stroke"  transform=" translate(0, 0)" d="M -17.48971 -8.02469 L -17.48971 9.259260000000001 L 17.48971 22.42798 L 12.962959999999999 -8.02469 L 2.6748899999999995 -22.427979999999998 z" stroke-linecap="round" />
</g>
<g transform="matrix(0.12 0 0 0.12 322.16 247.46)" id="ShYECMlaYg4OhP-6N7chO"  >
<path style="stroke: rgb(0,0,0); stroke-width: 1; stroke-dasharray: none; stroke-linecap: butt; stroke-dashoffset: 0; stroke-linejoin: miter; stroke-miterlimit: 4; fill: rgb(247,47,58); fill-rule: nonzero; opacity: 1;" vector-effect="non-scaling-stroke"  transform=" translate(0, 0)" d="M -17.48971 -8.02469 L -17.48971 9.259260000000001 L 17.48971 22.42798 L 12.962959999999999 -8.02469 L 2.6748899999999995 -22.427979999999998 z" stroke-linecap="round" />
</g>
<g transform="matrix(0.12 0 0 0.12 326.28 252.32)" id="R2zCKxKDiejV6tNUbjP6p"  >
<path style="stroke: rgb(0,0,0); stroke-width: 1; stroke-dasharray: none; stroke-linecap: butt; stroke-dashoffset: 0; stroke-linejoin: miter; stroke-miterlimit: 4; fill: rgb(247,47,58); fill-rule: nonzero; opacity: 1;" vector-effect="non-scaling-stroke"  transform=" translate(0, 0)" d="M -17.48971 -8.02469 L -17.48971 9.259260000000001 L 17.48971 22.42798 L 12.962959999999999 -8.02469 L 2.6748899999999995 -22.427979999999998 z" stroke-linecap="round" />
</g>
<g transform="matrix(0.12 0 0 0.12 329.54 246.64)" id="cAgyuj6p1XTEpgVX_9LnR"  >
<path style="stroke: rgb(0,0,0); stroke-width: 1; stroke-dasharray: none; stroke-linecap: butt; stroke-dashoffset: 0; stroke-linejoin: miter; stroke-miterlimit: 4; fill: rgb(247,47,58); fill-rule: nonzero; opacity: 1;" vector-effect="non-scaling-stroke"  transform=" translate(0, 0)" d="M -17.48971 -8.02469 L -17.48971 9.259260000000001 L 17.48971 22.42798 L 12.962959999999999 -8.02469 L 2.6748899999999995 -22.427979999999998 z" stroke-linecap="round" />
</g>
<g transform="matrix(0.12 0 0 0.12 335.73 252.7)" id="lN5Ei0LZ3HjfunLqldng1"  >
<path style="stroke: rgb(0,0,0); stroke-width: 1; stroke-dasharray: none; stroke-linecap: butt; stroke-dashoffset: 0; stroke-linejoin: miter; stroke-miterlimit: 4; fill: rgb(247,47,58); fill-rule: nonzero; opacity: 1;" vector-effect="non-scaling-stroke"  transform=" translate(0, 0)" d="M -17.48971 -8.02469 L -17.48971 9.259260000000001 L 17.48971 22.42798 L 12.962959999999999 -8.02469 L 2.6748899999999995 -22.427979999999998 z" stroke-linecap="round" />
</g>
<g transform="matrix(0.17 0 0 0.17 266.34 164.06)" id="WGeyCekH4faFTXW_wsSSB"  >
<path style="stroke: rgb(0,0,0); stroke-width: 1; stroke-dasharray: none; stroke-linecap: butt; stroke-dashoffset: 0; stroke-linejoin: miter; stroke-miterlimit: 4; fill: rgb(255,243,18); fill-rule: nonzero; opacity: 1;" vector-effect="non-scaling-stroke"  transform=" translate(0, 0)" d="M -63.16933 -19.34156 L -19.135200000000005 -19.34156 L 2.675499999999996 -57.61316 L 19.959449999999997 -19.34156 L 63.169329999999995 -19.34156 L 31.482089999999996 16.049389999999995 L 47.53147 57.61317999999999 L 2.6754999999999995 32.09877999999999 L -38.06524 55.55556999999999 L -25.71956 16.04939999999999 z" stroke-linecap="round" />
</g>
<g transform="matrix(0.81 0 0 0.84 430.28 344.96)" id="Jg7SbeVcFvvtEvoZzWnE6"  >
<path style="stroke: rgb(0,0,0); stroke-width: 1; stroke-dasharray: none; stroke-linecap: butt; stroke-dashoffset: 0; stroke-linejoin: miter; stroke-miterlimit: 4; fill: rgb(156,73,0); fill-rule: nonzero; opacity: 1;" vector-effect="non-scaling-stroke"  transform=" translate(0, 0)" d="M -71.37405 -14.70555 L -53.8168 16.836349999999996 L 42.36641 16.836349999999996 L 71.37404000000001 -16.836350000000003 z" stroke-linecap="round" />
</g>
<g transform="matrix(1.44 0 0 1.44 499.14 313.99)" id="p8kiy1vppGceul7TvDlJ1"  >
<path style="stroke: rgb(0,0,0); stroke-width: 1; stroke-dasharray: none; stroke-linecap: butt; stroke-dashoffset: 0; stroke-linejoin: miter; stroke-miterlimit: 4; fill: rgb(255,255,255); fill-opacity: 0; fill-rule: nonzero; opacity: 1;" vector-effect="non-scaling-stroke"  transform=" translate(0, 0)" d="M 0 0" stroke-linecap="round" />
</g>
<g transform="matrix(0.62 0 0 0.64 426.66 355.72)" id="iB9K2zYljK-u61icsynKS"  >
<path style="stroke: rgb(0,0,0); stroke-width: 1; stroke-dasharray: none; stroke-linecap: butt; stroke-dashoffset: 0; stroke-linejoin: miter; stroke-miterlimit: 4; fill: rgb(49,168,247); fill-rule: nonzero; opacity: 1;" vector-effect="non-scaling-stroke"  transform=" translate(0, 0)" d="M -64.12214 4.58015 C -64.12214 4.58015 -46.895250000000004 -12.9771 -32.39144 4.58015 C -32.39144 4.58015 -14.885500000000004 -14.503820000000001 1.9083899999999971 4.58015 C 1.9083899999999971 4.58015 19.083959999999998 -16.030540000000002 32.06106 4.58015 C 32.06106 4.58015 50.38167 -12.9771 64.12213 4.58015 z" stroke-linecap="round" />
</g>
<g transform="matrix(1 0 0 1 705.96 472.62)" id="vk-ghVSWfwryKmmmcag7s"  >
<path style="stroke: rgb(0,0,0); stroke-width: 1; stroke-dasharray: none; stroke-linecap: butt; stroke-dashoffset: 0; stroke-linejoin: miter; stroke-miterlimit: 4; fill: rgb(255,255,255); fill-opacity: 0; fill-rule: nonzero; opacity: 1;" vector-effect="non-scaling-stroke"  transform=" translate(0, 0)" d="M -11.15643 -42.32955 L -35.43449 32.67045 L 35.43448000000001 42.32954" stroke-linecap="round" />
</g>
<g transform="matrix(1.03 -0.32 0.32 1.03 445.19 273.82)" id="LyEQrV5EEvPhbML3MEeOG"  >
<path style="stroke: rgb(0,0,0); stroke-width: 1; stroke-dasharray: none; stroke-linecap: butt; stroke-dashoffset: 0; stroke-linejoin: miter; stroke-miterlimit: 4; fill: rgb(252,134,29); fill-rule: nonzero; opacity: 1;" vector-effect="non-scaling-stroke"  transform=" translate(0, 0)" d="M -11.97717 -43.46591 L -33.31758 34.37499999999999 L 26.659190000000002 43.465909999999994 C 26.659190000000002 43.465909999999994 54.992490000000004 -26.988640000000004 -5.234779999999997 -43.46591000000001 z" stroke-linecap="round" />
</g>
<g transform="matrix(1.44 0 0 1.44 414.49 230.43)" id="nEf7roGCB4Dyo7lKG6kVk"  >
<path style="stroke: rgb(0,0,0); stroke-width: 1; stroke-dasharray: none; stroke-linecap: butt; stroke-dashoffset: 0; stroke-linejoin: miter; stroke-miterlimit: 4; fill: rgb(156,73,0); fill-rule: nonzero; opacity: 1;" vector-effect="non-scaling-stroke"  transform=" translate(0, 0)" d="M -1.53374 -68.60941 L -2.5562300000000002 68.6094 L 1.6187999999999994 68.6094 L 2.5562399999999994 -68.60941 z" stroke-linecap="round" />
</g>
<g transform="matrix(1.44 0 0 1.44 453.13 275.35)" id="plvV0_D4_Vi4xbuPT383s"  >
<path style="stroke: rgb(0,0,0); stroke-width: 1; stroke-dasharray: none; stroke-linecap: butt; stroke-dashoffset: 0; stroke-linejoin: miter; stroke-miterlimit: 4; fill: rgb(252,134,29); fill-rule: nonzero; opacity: 1;" vector-effect="non-scaling-stroke"  transform=" translate(0, 0)" d="M -21.96956 25.06928 L -21.96956 30.436799999999998 L 22.729169999999996 10.15533 C 22.729169999999996 10.15533 22.588259999999995 -0.38888999999999996 19.527039999999996 -4.130380000000001 L -21.969560000000005 23.487479999999998 L -21.969560000000005 16.741049999999998 L 12.384179999999997 -17.395690000000005 C 12.384179999999997 -17.395690000000005 10.343359999999997 -22.630780000000005 3.2005099999999977 -26.712420000000005 L -21.96956 8.114509999999992 L -22.72918 -1.0590700000000073 L -10.443019999999999 -30.436800000000005" stroke-linecap="round" />
</g>
<g transform="matrix(1.03 -0.32 0.32 1.03 445.09 177.52)" id="2EZPVsRgvGDX8ad089NX2"  >
<path style="stroke: rgb(0,0,0); stroke-width: 1; stroke-dasharray: none; stroke-linecap: butt; stroke-dashoffset: 0; stroke-linejoin: miter; stroke-miterlimit: 4; fill: rgb(252,134,29); fill-rule: nonzero; opacity: 1;" vector-effect="non-scaling-stroke"  transform=" translate(0, 0)" d="M -11.97717 -43.46591 L -33.31758 34.37499999999999 L 26.659190000000002 43.465909999999994 C 26.659190000000002 43.465909999999994 54.992490000000004 -26.988640000000004 -5.234779999999997 -43.46591000000001 z" stroke-linecap="round" />
</g>
<g transform="matrix(1.44 0 0 1.44 453.04 179.05)" id="bEh9yQnieaqWRi1Wdfm6D"  >
<path style="stroke: rgb(0,0,0); stroke-width: 1; stroke-dasharray: none; stroke-linecap: butt; stroke-dashoffset: 0; stroke-linejoin: miter; stroke-miterlimit: 4; fill: rgb(252,134,29); fill-rule: nonzero; opacity: 1;" vector-effect="non-scaling-stroke"  transform=" translate(0, 0)" d="M -21.96956 25.06928 L -21.96956 30.436799999999998 L 22.729169999999996 10.15533 C 22.729169999999996 10.15533 22.588259999999995 -0.38888999999999996 19.527039999999996 -4.130380000000001 L -21.969560000000005 23.487479999999998 L -21.969560000000005 16.741049999999998 L 12.384179999999997 -17.395690000000005 C 12.384179999999997 -17.395690000000005 10.343359999999997 -22.630780000000005 3.2005099999999977 -26.712420000000005 L -21.96956 8.114509999999992 L -22.72918 -1.0590700000000073 L -10.443019999999999 -30.436800000000005" stroke-linecap="round" />
</g>
</svg>